<svg width="24" height="24" viewBox="0 0 24 24" fill="none" xmlns="http://www.w3.org/2000/svg">
<path fill-rule="evenodd" clip-rule="evenodd" d="M8.0263 21.2144C7.63209 20.9512 7.28205 20.6289 6.98952 20.2566C6.67031 19.871 6.37444 19.4654 6.10275 19.0456C5.46434 18.1128 4.96511 17.0925 4.61924 16.0173C4.20252 14.7663 4 13.5687 4 12.3968C4 11.0893 4.28337 9.94823 4.8351 8.99043C5.24348 8.24085 5.85188 7.61371 6.5853 7.17312C7.29372 6.7317 8.11881 6.49017 8.95224 6.47352C9.24394 6.47352 9.56065 6.51516 9.89402 6.59844C10.1357 6.66507 10.4274 6.77335 10.7858 6.90661C11.2442 7.08151 11.4942 7.18978 11.5775 7.21477C11.8442 7.31471 12.0693 7.35635 12.2443 7.35635C12.3776 7.35635 12.5693 7.31471 12.7819 7.24808C12.9027 7.20644 13.1319 7.13148 13.4569 6.98989C13.7786 6.87329 14.0337 6.77335 14.2362 6.69839C14.5446 6.60677 14.8429 6.52349 15.1113 6.48184C15.4363 6.43187 15.7589 6.41522 16.0681 6.4402C16.6598 6.48184 17.2015 6.60677 17.6849 6.79C18.535 7.13148 19.2209 7.66451 19.7327 8.42242C19.516 8.55568 19.316 8.71059 19.1284 8.88049C18.7226 9.23863 18.3783 9.66339 18.1033 10.134C17.7449 10.7753 17.5616 11.4999 17.5666 12.2328C17.5791 13.1348 17.8083 13.9277 18.2667 14.6148C18.5892 15.1145 19.0201 15.5426 19.5451 15.894C19.8035 16.0689 20.0302 16.1897 20.2452 16.2688C20.1452 16.5812 20.0352 16.8852 19.9077 17.185C19.6185 17.8571 19.2743 18.5009 18.8659 19.1089C18.5059 19.6336 18.2225 20.0251 18.0075 20.2832C17.6724 20.683 17.3491 20.9828 17.024 21.1969C16.6656 21.4343 16.2448 21.56 15.8139 21.56C15.5222 21.5725 15.2305 21.535 14.9521 21.4542C14.7104 21.3751 14.4721 21.286 14.2387 21.1852C13.9945 21.0736 13.742 20.9787 13.4844 20.9021C13.1677 20.8188 12.8427 20.7788 12.5143 20.7796C12.181 20.7796 11.8559 20.8213 11.5475 20.9004C11.2892 20.9737 11.0392 21.0636 10.7916 21.1711C10.4416 21.3168 10.2124 21.4126 10.079 21.4542C9.80901 21.5342 9.53231 21.5825 9.25395 21.6C8.82056 21.6 8.41718 21.4751 8.01547 21.2252L8.0263 21.2144ZM13.7386 5.24011C13.1719 5.52329 12.6335 5.64322 12.0943 5.60324C12.0109 5.06521 12.0943 4.51219 12.3193 3.9067C12.5193 3.39032 12.786 2.92392 13.1527 2.50748C13.5361 2.0744 13.9945 1.71626 14.5112 1.45808C15.0613 1.1749 15.5864 1.02499 16.0864 1C16.1531 1.56635 16.0864 2.12437 15.8781 2.72403C15.688 3.25706 15.4047 3.74845 15.0446 4.18987C14.6821 4.62296 14.232 4.98109 13.7228 5.23928L13.7386 5.24011Z" fill="white"/>
</svg>
