<svg width="48" height="48" viewBox="0 0 48 48" fill="none" xmlns="http://www.w3.org/2000/svg">
<g clip-path="url(#clip0_238_4905)">
<circle cx="24" cy="24" r="24" fill="#E0E7EE"/>
<path d="M48 24C48 37.2548 37.2548 48 24 48C10.7452 48 0 37.2548 0 24C0 10.7452 10.7452 0 24 0C37.2548 0 48 10.7452 48 24Z" fill="#15161C"/>
<path fill-rule="evenodd" clip-rule="evenodd" d="M4.93799 38.5843C8.90919 32.1377 16.0327 27.8401 24.16 27.8401C32.1895 27.8401 39.2392 32.0349 43.2373 38.3526C38.8609 44.209 31.8732 48.0001 24 48.0001C16.2311 48.0001 9.32434 44.3088 4.93799 38.5843Z" fill="#E0E7EE"/>
<path fill-rule="evenodd" clip-rule="evenodd" d="M4.93799 38.5843C8.90919 32.1377 16.0327 27.8401 24.16 27.8401C32.1895 27.8401 39.2392 32.0349 43.2373 38.3526C38.8609 44.209 31.8732 48.0001 24 48.0001C16.2311 48.0001 9.32434 44.3088 4.93799 38.5843Z" fill="#E0E7EE"/>
<circle cx="24" cy="15" r="8" fill="#E0E7EE"/>
</g>
<defs>
<clipPath id="clip0_238_4905">
<rect width="48" height="48" fill="white"/>
</clipPath>
</defs>
</svg>
