<svg width="25" height="24" viewBox="0 0 25 24" fill="none" xmlns="http://www.w3.org/2000/svg">
<path d="M12.5 10.8567V13.6H17.0373C16.854 14.7767 15.6667 17.0493 12.5 17.0493C9.77 17.0493 7.54067 14.79 7.54067 12C7.54067 9.21 9.77067 6.95067 12.5 6.95067C14.0533 6.95067 15.094 7.61 15.69 8.18333L17.8593 6.09133C16.466 4.79067 14.6593 4 12.5 4C8.07667 4 4.5 7.57667 4.5 12C4.5 16.4233 8.07667 20 12.5 20C17.1173 20 20.18 16.754 20.18 12.1827C20.18 11.6573 20.1233 11.256 20.054 10.8567H12.5Z" fill="white"/>
</svg>
